<svg width="67" height="20" viewBox="0 0 67 20" fill="none" xmlns="http://www.w3.org/2000/svg">
<circle cx="14" cy="12" r="3.5" fill="#D9D9D9" stroke="#306DE4"/>
<path d="M16.6667 11.9999L12.6667 14.3093L12.6667 9.69052L16.6667 11.9999Z" fill="#306DE4"/>
<path d="M5.79 16.15C4.69 16.15 3.77 15.92 3.03 15.46C2.3 15 1.75 14.36 1.38 13.54C1.02 12.71 0.84 11.74 0.84 10.63C0.84 9.55 1.03 8.6 1.41 7.78C1.79 6.95 2.355 6.305 3.105 5.845C3.855 5.375 4.78 5.14 5.88 5.14C6.61 5.14 7.215 5.215 7.695 5.365C8.185 5.515 8.55 5.72 8.79 5.98C9.03 6.24 9.15 6.53 9.15 6.85C9.15 7.21 9 7.505 8.7 7.735C8.41 7.955 8.005 8.065 7.485 8.065C7.485 7.745 7.43 7.43 7.32 7.12C7.22 6.81 7.045 6.555 6.795 6.355C6.555 6.145 6.225 6.04 5.805 6.04C5.125 6.04 4.58 6.22 4.17 6.58C3.77 6.94 3.48 7.46 3.3 8.14C3.12 8.82 3.03 9.65 3.03 10.63C3.03 11.56 3.13 12.355 3.33 13.015C3.54 13.675 3.87 14.175 4.32 14.515C4.77 14.855 5.36 15.025 6.09 15.025C6.58 15.025 7 14.96 7.35 14.83C7.7 14.69 7.995 14.515 8.235 14.305C8.475 14.095 8.68 13.88 8.85 13.66C8.93 13.72 8.995 13.805 9.045 13.915C9.095 14.025 9.12 14.15 9.12 14.29C9.12 14.49 9.06 14.7 8.94 14.92C8.82 15.13 8.63 15.33 8.37 15.52C8.11 15.71 7.765 15.865 7.335 15.985C6.915 16.095 6.4 16.15 5.79 16.15ZM21.4795 16.15C20.6895 16.15 20.0845 15.915 19.6645 15.445C19.2445 14.965 19.0345 14.215 19.0345 13.195V9.745C19.0345 9.445 18.9895 9.22 18.8995 9.07C18.8095 8.92 18.6795 8.82 18.5095 8.77C18.3495 8.72 18.1545 8.695 17.9245 8.695H17.8945V7.96H20.9845V12.895C20.9845 13.335 21.0195 13.71 21.0895 14.02C21.1695 14.33 21.3045 14.57 21.4945 14.74C21.6845 14.91 21.9445 14.995 22.2745 14.995C22.6445 14.995 22.9445 14.9 23.1745 14.71C23.4045 14.51 23.5745 14.235 23.6845 13.885C23.7945 13.535 23.8495 13.125 23.8495 12.655V9.7C23.8495 9.4 23.7945 9.18 23.6845 9.04C23.5845 8.9 23.4495 8.81 23.2795 8.77C23.1095 8.72 22.9195 8.695 22.7095 8.695H22.6645V7.96H25.7995V14.305C25.7995 14.595 25.8445 14.81 25.9345 14.95C26.0345 15.08 26.1695 15.165 26.3395 15.205C26.5095 15.245 26.6945 15.265 26.8945 15.265H26.9845V16H24.2245L23.9395 14.875H23.8645C23.7145 15.145 23.5495 15.365 23.3695 15.535C23.1895 15.695 22.9995 15.82 22.7995 15.91C22.5995 16 22.3895 16.06 22.1695 16.09C21.9495 16.13 21.7195 16.15 21.4795 16.15ZM27.7236 16V15.265H27.7686C27.9986 15.265 28.1986 15.24 28.3686 15.19C28.5486 15.14 28.6886 15.04 28.7886 14.89C28.8986 14.73 28.9536 14.495 28.9536 14.185V9.715C28.9536 9.415 28.9036 9.195 28.8036 9.055C28.7036 8.905 28.5686 8.81 28.3986 8.77C28.2286 8.72 28.0336 8.695 27.8136 8.695H27.7686V7.96H30.5286L30.8136 9.25H30.8886C31.0186 8.95 31.1636 8.69 31.3236 8.47C31.4936 8.25 31.7086 8.085 31.9686 7.975C32.2286 7.855 32.5686 7.795 32.9886 7.795C33.5586 7.795 33.9786 7.895 34.2486 8.095C34.5286 8.295 34.6686 8.585 34.6686 8.965C34.6686 9.365 34.5236 9.685 34.2336 9.925C33.9436 10.155 33.5186 10.27 32.9586 10.27C32.9586 9.99 32.9336 9.765 32.8836 9.595C32.8436 9.415 32.7686 9.28 32.6586 9.19C32.5486 9.1 32.3986 9.055 32.2086 9.055C31.9386 9.055 31.7186 9.155 31.5486 9.355C31.3786 9.545 31.2436 9.785 31.1436 10.075C31.0536 10.365 30.9886 10.665 30.9486 10.975C30.9186 11.285 30.9036 11.545 30.9036 11.755V14.26C30.9036 14.55 30.9536 14.77 31.0536 14.92C31.1536 15.06 31.2886 15.155 31.4586 15.205C31.6286 15.245 31.8136 15.265 32.0136 15.265H32.4786V16H27.7236ZM38.2376 16.15C37.5976 16.15 37.0676 16.08 36.6476 15.94C36.2376 15.8 35.9326 15.605 35.7326 15.355C35.5326 15.095 35.4326 14.795 35.4326 14.455C35.4326 14.145 35.5026 13.915 35.6426 13.765C35.7826 13.605 35.9476 13.5 36.1376 13.45C36.3276 13.39 36.4976 13.36 36.6476 13.36C36.6476 13.75 36.7076 14.095 36.8276 14.395C36.9576 14.685 37.1426 14.915 37.3826 15.085C37.6226 15.245 37.9176 15.325 38.2676 15.325C38.7976 15.325 39.1876 15.215 39.4376 14.995C39.6876 14.775 39.8126 14.5 39.8126 14.17C39.8126 13.94 39.7576 13.745 39.6476 13.585C39.5476 13.425 39.3626 13.27 39.0926 13.12C38.8226 12.97 38.4476 12.805 37.9676 12.625C37.4476 12.425 37.0076 12.215 36.6476 11.995C36.2876 11.765 36.0176 11.5 35.8376 11.2C35.6576 10.9 35.5676 10.525 35.5676 10.075C35.5676 9.325 35.8476 8.76 36.4076 8.38C36.9676 7.99 37.7076 7.795 38.6276 7.795C39.2076 7.795 39.6776 7.86 40.0376 7.99C40.3976 8.12 40.6626 8.295 40.8326 8.515C41.0026 8.725 41.0876 8.95 41.0876 9.19C41.0876 9.5 40.9776 9.74 40.7576 9.91C40.5476 10.08 40.2076 10.165 39.7376 10.165C39.7376 9.665 39.6276 9.28 39.4076 9.01C39.1876 8.73 38.8576 8.59 38.4176 8.59C38.1676 8.59 37.9426 8.63 37.7426 8.71C37.5526 8.79 37.4026 8.91 37.2926 9.07C37.1826 9.22 37.1276 9.405 37.1276 9.625C37.1276 9.845 37.1876 10.04 37.3076 10.21C37.4276 10.37 37.6326 10.525 37.9226 10.675C38.2126 10.825 38.6076 10.99 39.1076 11.17C39.5876 11.35 39.9926 11.55 40.3226 11.77C40.6626 11.98 40.9226 12.235 41.1026 12.535C41.2826 12.835 41.3726 13.195 41.3726 13.615C41.3726 14.425 41.0926 15.05 40.5326 15.49C39.9826 15.93 39.2176 16.15 38.2376 16.15ZM46.4821 16.15C45.2821 16.15 44.3571 15.79 43.7071 15.07C43.0671 14.34 42.7471 13.325 42.7471 12.025C42.7471 10.625 43.0571 9.57 43.6771 8.86C44.3071 8.14 45.1871 7.78 46.3171 7.78C47.3671 7.78 48.1871 8.085 48.7771 8.695C49.3771 9.295 49.6771 10.19 49.6771 11.38V12.115H44.7271C44.7471 12.815 44.8371 13.385 44.9971 13.825C45.1671 14.255 45.4021 14.575 45.7021 14.785C46.0121 14.995 46.3871 15.1 46.8271 15.1C47.1771 15.1 47.4871 15.05 47.7571 14.95C48.0371 14.84 48.2771 14.7 48.4771 14.53C48.6771 14.35 48.8371 14.155 48.9571 13.945C49.0671 13.995 49.1521 14.08 49.2121 14.2C49.2821 14.31 49.3171 14.44 49.3171 14.59C49.3171 14.84 49.2121 15.085 49.0021 15.325C48.8021 15.565 48.4921 15.765 48.0721 15.925C47.6621 16.075 47.1321 16.15 46.4821 16.15ZM47.6821 11.215C47.6821 10.705 47.6371 10.26 47.5471 9.88C47.4571 9.5 47.3121 9.21 47.1121 9.01C46.9221 8.8 46.6621 8.695 46.3321 8.695C46.0121 8.695 45.7371 8.79 45.5071 8.98C45.2871 9.17 45.1121 9.455 44.9821 9.835C44.8621 10.205 44.7871 10.665 44.7571 11.215H47.6821Z" fill="black"/>
<path d="M50.8267 16V15.265H51.2917C51.4717 15.265 51.6317 15.245 51.7717 15.205C51.9117 15.155 52.0217 15.06 52.1017 14.92C52.1917 14.77 52.2367 14.55 52.2367 14.26V7.03C52.2367 6.73 52.1917 6.51 52.1017 6.37C52.0217 6.23 51.9117 6.14 51.7717 6.1C51.6317 6.05 51.4717 6.025 51.2917 6.025H50.8267V5.29H55.6867V6.025H55.2217C55.0517 6.025 54.8917 6.05 54.7417 6.1C54.6017 6.14 54.4917 6.23 54.4117 6.37C54.3317 6.51 54.2917 6.73 54.2917 7.03V14.26C54.2917 14.55 54.3317 14.77 54.4117 14.92C54.4917 15.06 54.6017 15.155 54.7417 15.205C54.8917 15.245 55.0517 15.265 55.2217 15.265H55.6867V16H50.8267ZM56.5071 16V15.265H56.5671C56.7971 15.265 57.0021 15.24 57.1821 15.19C57.3621 15.14 57.5021 15.04 57.6021 14.89C57.7121 14.74 57.7671 14.515 57.7671 14.215V9.685C57.7671 9.395 57.7171 9.18 57.6171 9.04C57.5171 8.9 57.3821 8.81 57.2121 8.77C57.0521 8.72 56.8621 8.695 56.6421 8.695H56.5821V7.96H59.4621L59.6571 9.085H59.7321C59.9321 8.705 60.1471 8.425 60.3771 8.245C60.6171 8.055 60.8721 7.93 61.1421 7.87C61.4221 7.81 61.7221 7.78 62.0421 7.78C62.8221 7.78 63.4321 8.01 63.8721 8.47C64.3121 8.93 64.5321 9.67 64.5321 10.69V14.2C64.5321 14.51 64.5721 14.74 64.6521 14.89C64.7421 15.04 64.8621 15.14 65.0121 15.19C65.1721 15.24 65.3621 15.265 65.5821 15.265H65.6421V16H62.5821V10.975C62.5821 10.325 62.4771 9.825 62.2671 9.475C62.0671 9.115 61.7171 8.935 61.2171 8.935C60.8371 8.935 60.5371 9.045 60.3171 9.265C60.1071 9.485 59.9521 9.775 59.8521 10.135C59.7621 10.495 59.7171 10.885 59.7171 11.305V14.275C59.7171 14.565 59.7621 14.78 59.8521 14.92C59.9521 15.06 60.0871 15.155 60.2571 15.205C60.4271 15.245 60.6221 15.265 60.8421 15.265H60.9021V16H56.5071Z" fill="#FF0000"/>
</svg>
